<svg xmlns="http://www.w3.org/2000/svg" height="20" viewBox="0 -960 960 960" width="20"><path d="M480.025-124.078q-73.085 0-137.977-27.867-64.891-27.866-113.623-76.653-48.732-48.787-76.539-113.581-27.808-64.793-27.808-137.796 0-74.085 27.867-138.477 27.866-64.391 76.653-113.123 48.787-48.732 113.581-76.539 64.793-27.808 137.796-27.808 74.085 0 138.477 27.867 64.391 27.866 113.123 76.653 48.732 48.787 76.539 113.081 27.808 64.293 27.808 138.296 0 73.085-27.867 137.977-27.866 64.891-76.653 113.623-48.787 48.732-113.081 76.539-64.293 27.808-138.296 27.808ZM648.846-553.23l62.693-18.51 26.538-76.529q-29.192-45.423-71.676-77.712-42.483-32.289-96.632-49.327l-65.385 46.769v72.809l144.462 102.5Zm-338.643-1 146.221-101.5v-72.784l-66.289-46.794q-53.981 17-96.616 48.808t-70.827 77.14l26.539 77.572 60.972 17.558Zm-79.502 254.884 82.387 1.231 37.567-49.385-52.962-159.462-61.58-17.308-64.075 48.898q2 48.27 15.712 91.994 13.711 43.724 42.951 84.032ZM480-172.038q25.192 0 50.962-4.693 25.769-4.692 53.077-13.077l25.077-76.923-38.433-52.732H388.5l-36.847 52.732 25.078 76.923q26.153 8.385 52.115 13.077 25.962 4.693 51.154 4.693Zm-85.039-195.385h171.655l48.731-151.423L480-613.654l-136.116 94.986 51.077 151.245Zm334.362 69.077q29.216-40.308 42.927-84.032 13.712-43.724 15.712-91.994l-63.305-49.898-62.35 16.539-52.962 160.14 37.616 49.476 82.362-.231Z"/></svg>